<svg id="Layer_1" data-name="Layer 1" xmlns="http://www.w3.org/2000/svg" viewBox="0 0 206.83 152.11"><defs><style>.cls-1{fill:#a9b4b5;}.cls-2{fill:#fff;}.cls-3{fill:#282f2f;}.cls-11,.cls-4{fill:#444c4c;}.cls-5{fill:none;stroke:#444c4c;stroke-miterlimit:282;stroke-width:0.79px;}.cls-6{fill:#1f2935;}.cls-7{fill:#343b3c;}.cls-8{fill:#737b7f;}.cls-9{fill:#60676a;}.cls-10{fill:#231f20;}.cls-11{fill-rule:evenodd;}</style></defs><path class="cls-1" d="M148.2,538.06l1.56-7c1.16-5.29,8.58-11.24,24.19-11.52l5.94,2.26a59.94,59.94,0,0,0,9.8-.25,84.12,84.12,0,0,1,23.9,1.22s12.1-4.36,16.48-4.82c22.8.6,33.05,6.32,47.72,18.55l6.46,21.41-88.41.39L156.7,546.53l-8.5-8.47" transform="translate(-102.03 -517.9)"/><path class="cls-2" d="M147.69,530.73,140.81,534c-13.73,24.38-33.61,46-38.74,74.27a60.07,60.07,0,0,0,6.85,31.07,27.61,27.61,0,0,0,19,12.51L140.73,645l23.11-25.43L202,620.58s9.91,1.3,14.27,3.48c24.64,12.29,34,28.09,50.18,41.66,7.17,6.22,31.92,8.92,38.35-15.18,1.73-35.88-9.71-70.17-20.65-105.31-.14,0-23.9-14-39.5-17.67-6.4-1.53-14.44-3.4-19.71-.54-7.28,4-6.54,16.79-13.88,20.67-9.54,5-22.79,4.65-32.31-.42-6.06-3.23-4.62-13.79-11.7-17-6-2.72-19.37.51-19.37.51" transform="translate(-102.03 -517.9)"/><path class="cls-1" d="M279.63,542.68c6.29,15.77,14.14,31.83,16,48.9,2.66,18.49,4.7,37.24,2.69,55.93-.43,5.41-.85,11.1-1.28,16.51,9.46-7.42,13.45-20.7,11.24-32.34A336.86,336.86,0,0,0,296.31,571c-2.8-9.18-7.25-17.62-12.15-25.77Z" transform="translate(-102.03 -517.9)"/><path class="cls-3" d="M154.58,559.19c0,9.49-6.07,17.19-13.54,17.19s-13.57-7.7-13.57-17.19S133.53,542,141,542s13.54,7.67,13.54,17.19" transform="translate(-102.03 -517.9)"/><path class="cls-4" d="M154.58,559.19h-.37a19.3,19.3,0,0,1-3.89,11.92,11.27,11.27,0,0,1-18.59,0,20.24,20.24,0,0,1,0-23.86,11.29,11.29,0,0,1,18.59,0,19.32,19.32,0,0,1,3.89,11.94h.73a20.08,20.08,0,0,0-4-12.39,12,12,0,0,0-19.75,0,21,21,0,0,0,0,24.77,12,12,0,0,0,19.75,0,20.09,20.09,0,0,0,4-12.38h-.36" transform="translate(-102.03 -517.9)"/><ellipse class="cls-1" cx="113.63" cy="77.33" rx="15.75" ry="16.14"/><ellipse class="cls-5" cx="113.63" cy="77.33" rx="15.75" ry="16.14"/><path class="cls-6" d="M226.79,596.43c-2.75,7.7-11,12.34-18.35,10.36s-11.13-9.85-8.36-17.59,11-12.34,18.36-10.36S229.56,588.69,226.79,596.43Z" transform="translate(-102.03 -517.9)"/><path class="cls-7" d="M127.72,554c-3,4.74-6.27,10-9.4,15.46,2.93-4.78,6-9.49,9.13-14.2q.12-.63.27-1.26m20-23.28h0L140.81,534c-1.24,2.11-3.5,5.47-6.33,9.73.27-.18.54-.35.82-.51,1.91-3,3.76-6.11,5.51-9.22l6.88-3.23h0" transform="translate(-102.03 -517.9)"/><path class="cls-8" d="M214.37,544.79a9.85,9.85,0,0,1-3.41,2.93,33.86,33.86,0,0,1-15.34,3.47,37.63,37.63,0,0,1-16.17-3.57,36.46,36.46,0,0,0,16.11,3.63,33.75,33.75,0,0,0,15.51-3.56,9.8,9.8,0,0,0,3.3-2.9M175,543.07a10.86,10.86,0,0,0,2.06,3,11.09,11.09,0,0,1-2.06-3m80.37-12a223.43,223.43,0,0,1,21.45,10.15l.05,0a229.55,229.55,0,0,0-21.5-10.13m-20.69-5.4a74.07,74.07,0,0,1,9.94,1.88c1,.22,1.92.49,2.92.78a63.34,63.34,0,0,0-12.86-2.66m-3-.16a14.33,14.33,0,0,0-7.06,1.64l-.23.15c.16-.1.32-.2.49-.29a14.6,14.6,0,0,1,7-1.49h.54l-.7,0" transform="translate(-102.03 -517.9)"/><path class="cls-2" d="M231.91,525.53a14.6,14.6,0,0,0-7,1.49c-.17.09-.33.19-.49.29-5.54,3.55-6.15,12.31-10.09,17.48a9.8,9.8,0,0,1-3.3,2.9,33.75,33.75,0,0,1-15.51,3.56,36.46,36.46,0,0,1-16.11-3.63l-.55-.27a7,7,0,0,1-1.8-1.31,10.86,10.86,0,0,1-2.06-3c-2.23-4.46-3-10.54-7.89-12.79a17.09,17.09,0,0,0-6.85-1.12,63.69,63.69,0,0,0-12.61,1.57h0L140.81,534c-1.75,3.11-3.6,6.18-5.51,9.22a11.56,11.56,0,0,1,5.74-1.55h0a12.61,12.61,0,0,1,9.86,5.17,20.08,20.08,0,0,1,4,12.39h0a20.09,20.09,0,0,1-4,12.38,12.61,12.61,0,0,1-9.86,5.17h0a12.67,12.67,0,0,1-9.89-5.17,20,20,0,0,1-4-12.38,22.78,22.78,0,0,1,.34-3.92c-3.1,4.71-6.2,9.42-9.13,14.2-7.23,12.69-13.91,26.73-16.22,39,0,11.41,1.61,16.93,1.61,16.93L192.78,581s43.94-20.71,84.08-39.76a223.43,223.43,0,0,0-21.45-10.15c-2.55-1-5.18-1.93-7.83-2.74-1-.29-2-.56-2.92-.78a74.07,74.07,0,0,0-9.94-1.88c-.76-.07-1.52-.12-2.27-.14h-.54" transform="translate(-102.03 -517.9)"/><path class="cls-1" d="M141,542.37a11.43,11.43,0,0,0-7.91,3.34c-1.22,1.85-2.54,3.85-3.9,6a20.54,20.54,0,0,0-1.39,7.52,19.3,19.3,0,0,0,3.89,11.92,11.27,11.27,0,0,0,18.59,0,19.3,19.3,0,0,0,3.89-11.92h0a19.32,19.32,0,0,0-3.89-11.94,11.9,11.9,0,0,0-9.28-4.88" transform="translate(-102.03 -517.9)"/><path class="cls-9" d="M154.94,559.19h0m-25.71-7.52c-.5.76-1,1.55-1.51,2.34q-.15.63-.27,1.26a22.78,22.78,0,0,0-.34,3.92,20,20,0,0,0,4,12.38,12.67,12.67,0,0,0,9.89,5.17h0a12.61,12.61,0,0,0,9.86-5.17,20.09,20.09,0,0,0,4-12.38h-.73a19.3,19.3,0,0,1-3.89,11.92,11.27,11.27,0,0,1-18.59,0,19.3,19.3,0,0,1-3.89-11.92,20.54,20.54,0,0,1,1.39-7.52m11.81-10h0a11.56,11.56,0,0,0-5.74,1.55c-.28.16-.55.33-.82.51l-1.35,2a11.43,11.43,0,0,1,7.91-3.34,11.9,11.9,0,0,1,9.28,4.88,19.32,19.32,0,0,1,3.89,11.94h.73a20.08,20.08,0,0,0-4-12.39,12.61,12.61,0,0,0-9.86-5.17" transform="translate(-102.03 -517.9)"/><path class="cls-1" d="M177.57,592.49c0,9.8-8.78,17.75-19.6,17.75s-19.57-8-19.57-17.75,8.76-17.76,19.57-17.76S177.57,582.66,177.57,592.49Z" transform="translate(-102.03 -517.9)"/><path class="cls-1" d="M240.72,564.12a8.24,8.24,0,1,1-8.24-8.07A8.16,8.16,0,0,1,240.72,564.12Z" transform="translate(-102.03 -517.9)"/><path class="cls-1" d="M259,550a8.24,8.24,0,1,1-8.24-8A8.14,8.14,0,0,1,259,550Z" transform="translate(-102.03 -517.9)"/><path class="cls-3" d="M259.5,580.51a8.24,8.24,0,1,1-8.24-8A8.13,8.13,0,0,1,259.5,580.51Z" transform="translate(-102.03 -517.9)"/><path class="cls-1" d="M259.5,580.51a8.24,8.24,0,1,1-8.24-8A8.13,8.13,0,0,1,259.5,580.51Z" transform="translate(-102.03 -517.9)"/><path class="cls-3" d="M273.46,564.8a8.24,8.24,0,1,1-8.24-8A8.16,8.16,0,0,1,273.46,564.8Z" transform="translate(-102.03 -517.9)"/><path class="cls-1" d="M273.46,564.8a8.24,8.24,0,1,1-8.24-8A8.16,8.16,0,0,1,273.46,564.8Z" transform="translate(-102.03 -517.9)"/><path class="cls-2" d="M207.56,535.83a12.92,12.92,0,1,1-12.91-12.52A12.7,12.7,0,0,1,207.56,535.83Z" transform="translate(-102.03 -517.9)"/><path class="cls-10" d="M185.16,543.27s.2-13.3,15.75-17.16C200.91,526.11,191.22,529.34,185.16,543.27Z" transform="translate(-102.03 -517.9)"/><path class="cls-1" d="M164.23,619.42c-10.82,0-14.75.51-19.71,3.11-8,4.19-13,12.32-15.43,18.55-1.22,3.62-4,9.4-1.19,10.73,4.87.74,8.58-1.41,15.46-4.73l15.38-19.88Z" transform="translate(-102.03 -517.9)"/><path class="cls-11" d="M181.9,562a3.14,3.14,0,1,1-3.14-3.14A3.15,3.15,0,0,1,181.9,562Z" transform="translate(-102.03 -517.9)"/><path class="cls-11" d="M208.44,562.3a3.13,3.13,0,1,1-3.12-3.14A3.14,3.14,0,0,1,208.44,562.3Z" transform="translate(-102.03 -517.9)"/><path class="cls-2" d="M256,584.22h-1.76l-.7-1.82h-3.2l-.66,1.82H248l3.12-8h1.7Zm-3-3.17-1.1-3-1.08,3Z" transform="translate(-102.03 -517.9)"/><path class="cls-2" d="M262.36,560h3.2a9.51,9.51,0,0,1,1.41.08,2.31,2.31,0,0,1,.84.33,2.07,2.07,0,0,1,.61.67,1.76,1.76,0,0,1,.25.94,1.88,1.88,0,0,1-.3,1,1.91,1.91,0,0,1-.83.71,2.1,2.1,0,0,1,1.13.72,2,2,0,0,1,.39,1.21,2.36,2.36,0,0,1-.25,1.06,2.17,2.17,0,0,1-.69.83A2.44,2.44,0,0,1,267,568c-.27,0-.92,0-1.95,0h-2.72Zm1.61,1.34v1.85H265c.63,0,1,0,1.18,0a1.06,1.06,0,0,0,.65-.29.81.81,0,0,0,.24-.62.84.84,0,0,0-.21-.6.93.93,0,0,0-.61-.29c-.16,0-.62,0-1.38,0Zm0,3.18v2.14h1.5a6.45,6.45,0,0,0,1.11,0,1,1,0,0,0,.59-.32,1,1,0,0,0,.22-.68,1.09,1.09,0,0,0-.17-.61,1,1,0,0,0-.51-.36,5.25,5.25,0,0,0-1.43-.12Z" transform="translate(-102.03 -517.9)"/><path class="cls-2" d="M228.94,568.42l2.74-4.18-2.48-3.83h1.89L232.7,563l1.57-2.58h1.87l-2.49,3.89,2.74,4.12h-1.95l-1.78-2.77-1.78,2.77Z" transform="translate(-102.03 -517.9)"/><path class="cls-2" d="M249.84,554.29v-3.37l-2.94-4.64h1.9l1.88,3.17,1.85-3.17h1.86l-2.94,4.65v3.36Z" transform="translate(-102.03 -517.9)"/><path class="cls-10" d="M202.8,543.76s-.22-13.34-15.74-17.16C187.06,526.6,196.74,529.82,202.8,543.76Z" transform="translate(-102.03 -517.9)"/><path class="cls-6" d="M151.32,557.69c-.82,8.8-7.53,15.71-15,15.43s-12.86-7.67-12-16.48,7.54-15.71,15-15.43S152.14,548.88,151.32,557.69Z" transform="translate(-102.03 -517.9)"/><path class="cls-2" d="M154.1,578.15l9.54.14-.06,8.86v.79l.8,0,9.37.17.09,7.45h-10.6l0,.85.17,9.94-9.94.11.12-9.8v-.79h-.8l-10.08-.08.11-7.85,10.28-.2h.77l0-.76Zm-2.81-1.62,0,.79-.17,8.92-10.28.17H140l0,.76-.17,9.49v.82l1.73,1.11,9.23-.14v10.84l.85,0,11.56-.11,1.36.14.73-.76-.2-10.14,9.12.06.74-1.22,0-.82-.14-9.07,0-.79-.76,0-8.7-.14.29-8.27-1.56-1.3-.8-.08-11.12-.17Z" transform="translate(-102.03 -517.9)"/></svg>